<svg width="103" height="103" viewBox="0 0 103 103" fill="none" xmlns="http://www.w3.org/2000/svg">
<path d="M29.1649 72.5895H5.61354C4.39943 72.5939 3.22794 72.1422 2.33098 71.324C1.87275 70.9125 1.50579 70.4095 1.25376 69.8476C1.00173 69.2856 0.870209 68.6771 0.867676 68.0612V5.37628C0.867676 4.11071 1.42136 2.9638 2.33098 2.13327C3.22794 1.31501 4.39943 0.863346 5.61354 0.867707H97.3866C98.6522 0.867707 99.8189 1.36207 100.669 2.13327C101.559 2.9638 102.113 4.11071 102.113 5.39605V68.081C102.11 68.692 101.98 69.2959 101.732 69.8541C101.483 70.4124 101.121 70.9129 100.669 71.324C99.7722 72.1422 98.6007 72.5939 97.3866 72.5895H73.8155V68.3776H97.3866C97.5464 68.3817 97.7018 68.3252 97.8217 68.2194C97.8612 68.1798 97.9008 68.1205 97.9008 68.0612V5.37628L97.8217 5.23785C97.6989 5.13919 97.5438 5.08983 97.3866 5.09943H5.61354C5.45635 5.08983 5.30124 5.13919 5.1785 5.23785C5.11918 5.29718 5.0994 5.33673 5.0994 5.39605V68.081C5.0994 68.1205 5.11918 68.1798 5.1785 68.2194C5.29833 68.3252 5.45375 68.3817 5.61354 68.3776H29.1649V72.5895Z" fill="white"/>
<path d="M4.94137 3.33958C4.47723 3.03016 3.90918 2.91778 3.36219 3.02718C2.8152 3.13658 2.33407 3.45879 2.02464 3.92293C1.71521 4.38707 1.60284 4.95511 1.71224 5.50211C1.82164 6.0491 2.14385 6.53023 2.60799 6.83965L50.7389 38.6765C51.1072 38.9169 51.5215 39.0366 51.961 39.0188C52.4004 39.0011 52.8234 38.8469 53.1712 38.5776L101.164 6.83965C101.628 6.53285 101.951 6.05424 102.062 5.5091C102.174 4.96396 102.064 4.39695 101.757 3.93281C101.45 3.46868 100.972 3.14542 100.426 3.03417C99.8813 2.92292 99.3142 3.03278 98.8501 3.33958L51.8859 34.3854L4.94137 3.33958Z" fill="white"/>
<path d="M61.3973 30.0352L101.46 67.1715L98.593 70.2563L58.5498 33.1002L61.3973 30.0352Z" fill="white"/>
<path d="M2.33084 67.1712C1.92177 67.5514 1.68049 68.0785 1.6601 68.6367C1.6397 69.1948 1.84185 69.7381 2.22208 70.1472C2.60231 70.5563 3.12946 70.7976 3.68758 70.8179C4.2457 70.8383 4.78906 70.6362 5.19813 70.256L45.2413 33.0998C45.4426 32.9116 45.6048 32.6855 45.7187 32.4345C45.8326 32.1836 45.8959 31.9127 45.9051 31.6372C45.9143 31.3618 45.8691 31.0872 45.7722 30.8293C45.6753 30.5713 45.5285 30.3349 45.3402 30.1337C45.1519 29.9324 44.9259 29.7702 44.6749 29.6563C44.424 29.5424 44.153 29.4791 43.8776 29.4699C43.6022 29.4607 43.3276 29.5059 43.0696 29.6028C42.8117 29.6997 42.5753 29.8465 42.374 30.0348L2.33084 67.1712Z" fill="white"/>
<path d="M51.4901 51.4904C54.817 51.4799 58.113 52.1275 61.1886 53.3958C64.2643 54.6641 67.0587 56.5281 69.4112 58.8806C71.7636 61.233 73.6276 64.0275 74.8959 67.1031C76.1642 70.1787 76.8118 73.4748 76.8014 76.8016C76.8118 80.1285 76.1642 83.4246 74.8959 86.5002C73.6276 89.5758 71.7636 92.3702 69.4112 94.7227C67.0587 97.0751 64.2643 98.9391 61.1886 100.207C58.113 101.476 54.817 102.123 51.4901 102.113C48.1633 102.123 44.8672 101.476 41.7916 100.207C38.7159 98.9391 35.9215 97.0751 33.569 94.7227C31.2166 92.3702 29.3526 89.5758 28.0843 86.5002C26.816 83.4246 26.1684 80.1285 26.1788 76.8016C26.1684 73.4748 26.816 70.1787 28.0843 67.1031C29.3526 64.0275 31.2166 61.233 33.569 58.8806C35.9215 56.5281 38.7159 54.6641 41.7916 53.3958C44.8672 52.1275 48.1633 51.4799 51.4901 51.4904ZM66.4198 61.8917C64.4659 59.9229 62.1416 58.3603 59.5809 57.2939C57.0202 56.2275 54.2738 55.6785 51.5 55.6785C48.7262 55.6785 45.9798 56.2275 43.4191 57.2939C40.8584 58.3603 38.5341 59.9229 36.5802 61.8917C34.6114 63.8456 33.0487 66.1699 31.9824 68.7306C30.916 71.2913 30.367 74.0377 30.367 76.8115C30.367 79.5853 30.916 82.3317 31.9824 84.8924C33.0487 87.4531 34.6114 89.7774 36.5802 91.7313C38.5341 93.7001 40.8584 95.2628 43.4191 96.3291C45.9798 97.3955 48.7262 97.9445 51.5 97.9445C54.2738 97.9445 57.0202 97.3955 59.5809 96.3291C62.1416 95.2628 64.4659 93.7001 66.4198 91.7313C68.3886 89.7774 69.9512 87.4531 71.0176 84.8924C72.084 82.3317 72.6329 79.5853 72.6329 76.8115C72.6329 74.0377 72.084 71.2913 71.0176 68.7306C69.9512 66.1699 68.3886 63.8456 66.4198 61.8917Z" fill="white"/>
<path d="M53.4084 62.7618L57.126 70.8693L65.5301 71.6009L70.276 71.9964L66.7759 75.2394L60.2108 81.2904L62.1092 89.5166L63.177 94.1635L59.0243 91.8302L51.2332 87.46L44.0156 91.8104L39.9223 94.2426L40.8714 89.5759L42.6116 80.8158L36.2442 75.279L32.665 72.1546L37.4109 71.6009L46.2698 70.5726L49.5524 62.8013L51.4112 58.4312L53.4084 62.7618ZM53.8237 73.7168L51.5694 68.8325L49.6513 73.3411L49.1767 74.4682L47.9507 74.6066L42.6116 75.2394L46.3094 78.4429L47.2388 79.2338L46.9817 80.4401L45.9337 85.7396L50.1259 83.2085L51.1739 82.5757L52.2417 83.169L56.948 85.8187L55.8407 81.0531L55.5638 79.8666L56.4734 79.0361L60.4283 75.3778L55.5638 74.9428L54.3378 74.8439L53.8237 73.7168Z" fill="white"/>
</svg>
