<svg width="94" height="93" viewBox="0 0 94 93" fill="none" xmlns="http://www.w3.org/2000/svg">
<path d="M46.5181 0C20.8604 0 0 20.7151 0 46.3C0 71.8849 20.8604 92.6 46.5181 92.6C72.1757 92.6 93.0361 71.8849 93.0361 46.3C93.0361 20.7151 72.1757 0 46.5181 0ZM46.5181 87.9482C23.4044 87.9482 4.65181 69.341 4.65181 46.3C4.65181 23.259 23.4044 4.65181 46.5181 4.65181C69.6317 4.65181 88.3843 23.3317 88.3843 46.3C88.3843 69.341 69.6317 87.9482 46.5181 87.9482ZM63.3809 32.1265C62.7267 31.4724 61.7091 31.4724 61.055 32.1265L40.1218 52.987L30.0914 43.0292C29.4372 42.375 28.4196 42.375 27.7655 43.0292L24.2766 46.5181C23.6225 47.1722 23.6225 48.1898 24.2766 48.844L35.3973 59.9647L37.7959 62.3633L38.3774 62.9447L38.8862 63.4535C39.5403 64.1077 40.5579 64.1077 41.2121 63.4535L66.8697 37.9413C67.5239 37.2871 67.5239 36.2696 66.8697 35.6154L63.3809 32.1265Z" fill="white"/>
</svg>
