<svg width="84" height="100" viewBox="0 0 84 100" fill="none" xmlns="http://www.w3.org/2000/svg">
<path d="M82.8706 58.7411L67.9311 35.1062C67.9311 35.1062 67.9311 35.1062 67.9311 35.0905C67.9001 35.0434 67.869 35.0121 67.838 34.965L67.8224 34.9493C67.7914 34.918 67.7448 34.8866 67.7137 34.8552L67.6982 34.8396C67.6516 34.8082 67.6206 34.7925 67.574 34.7768H67.5584C67.5118 34.7611 67.4653 34.7455 67.4187 34.7298H67.4031C67.3565 34.7141 67.3255 34.7141 67.2789 34.7141L55.787 34.0083C55.7715 34.0083 55.756 34.0083 55.7404 34.0083C55.228 34.0083 54.731 34.0083 54.2185 34.0083C50.01 33.977 45.6773 33.9613 41.2669 35.3885C35.2569 33.977 24.8521 34.2906 20.2243 34.7455L16.7146 35.0905C16.4506 35.1219 16.2177 35.263 16.0779 35.4826L1.13845 59.1175C0.967623 59.3842 0.952094 59.7292 1.10739 59.9958C1.80622 61.2662 2.48952 62.5365 3.21941 63.8853C5.42461 67.9944 7.78511 72.3857 10.4873 76.4948C8.29758 77.7808 7.39687 80.5568 8.46841 82.925C9.02747 84.1483 10.0058 85.0737 11.2482 85.5285C11.8073 85.7324 12.3974 85.8421 12.9875 85.8421C13.6398 85.8421 14.292 85.701 14.9132 85.4344C14.5871 86.5793 14.6647 87.8026 15.1772 88.9004C15.7362 90.1237 16.7146 91.049 17.957 91.5039C18.516 91.7078 19.1062 91.8175 19.6963 91.8175C20.3951 91.8175 21.094 91.6607 21.7462 91.3627L23.7806 90.4531C23.47 91.5509 23.5476 92.7272 24.029 93.778C24.557 94.9385 25.5043 95.8325 26.7001 96.2873C27.2437 96.4912 27.8027 96.5853 28.3618 96.5853C29.0451 96.5853 29.7129 96.4442 30.3496 96.1462C30.3496 96.1462 30.3651 96.1462 30.3651 96.1305L32.912 94.8601C33.0051 95.4875 33.207 96.1148 33.5487 96.6794C34.2009 97.7773 35.2414 98.5614 36.4838 98.8594C37.0428 99.0006 37.6174 99.0319 38.1609 98.9692C38.8287 98.8908 39.481 98.6712 40.0866 98.3105L40.1021 98.2948L40.8476 97.8086C41.593 98.0752 42.121 98.2634 42.1986 98.2791C42.9906 98.4203 43.7671 98.5614 44.5125 98.5614C45.5996 98.5614 46.578 98.2634 47.4166 97.2126C47.7893 96.7421 48.0378 96.2246 48.1931 95.6757C48.4726 94.5308 48.1154 93.7466 48.1154 93.7466L50.1808 94.8758L51.7183 95.6443C51.7338 95.6443 51.7338 95.66 51.7493 95.66C52.386 95.958 53.0538 96.0991 53.7371 96.0991C54.2962 96.0991 54.8552 96.005 55.3988 95.8011C56.5946 95.3463 57.5419 94.468 58.0699 93.2918C58.427 92.4919 58.5668 91.645 58.4736 90.7981C58.691 90.6726 58.9085 90.5629 59.1259 90.4374L61.1603 91.3627C61.8125 91.6607 62.5269 91.8175 63.2257 91.8175C63.8158 91.8175 64.3904 91.7078 64.9495 91.5039C66.1918 91.0334 67.1857 90.108 67.7293 88.9004C68.2728 87.7085 68.3038 86.4224 67.9311 85.2619L69.0027 85.7324C69.6705 86.046 70.3693 86.1872 71.0526 86.1872C72.9317 86.1872 74.7331 85.105 75.5717 83.2701C76.7054 80.7921 75.6338 77.8436 73.1957 76.6516C76.0531 72.4014 78.5068 67.8219 80.8052 63.5246C81.535 62.1758 82.2183 60.9055 82.9172 59.6351C83.0414 59.3371 83.0259 59.0078 82.8706 58.7411ZM14.3075 83.8033C13.5155 84.164 12.6303 84.1954 11.8228 83.8974C10.9997 83.5837 10.363 82.9878 9.9903 82.1879C9.26041 80.5882 9.91266 78.7219 11.4346 77.9063C12.7235 79.7726 14.1056 81.5606 15.581 83.223L14.3075 83.8033ZM21.0008 89.7944C20.2088 90.1551 19.3236 90.1865 18.516 89.8885C17.693 89.5748 17.0563 88.9788 16.6836 88.179C16.3264 87.3791 16.2953 86.4852 16.5904 85.6696C16.6991 85.356 16.8544 85.0737 17.0563 84.8227C18.0191 85.7951 19.013 86.7047 20.0535 87.5516L20.9076 88.2417C21.3114 88.5711 21.7773 88.9004 22.2742 89.2298L21.0008 89.7944ZM29.5886 94.5778C28.8432 94.9229 28.0201 94.9542 27.2592 94.6562C26.4982 94.3739 25.8926 93.7936 25.5509 93.0565C25.2559 92.4135 25.1938 91.7234 25.3646 91.049C26.0324 91.4098 26.7001 91.7862 27.3679 92.1469C27.7561 92.3665 28.1444 92.5703 28.5326 92.7742C29.2936 93.182 30.07 93.5898 30.862 93.9505L29.5886 94.5778ZM36.8565 97.197C36.0645 96.9931 35.3967 96.5069 34.9774 95.8011C34.9463 95.7541 34.9308 95.707 34.8997 95.66C34.9619 95.6914 36.872 96.3971 38.72 97.0715C38.1299 97.3067 37.4776 97.3538 36.8565 97.197ZM73.9877 82.5329C73.2423 84.1797 71.3011 84.9011 69.6705 84.1483H69.6549L67.9311 83.3955L67.1081 83.0348L66.2695 82.6741L62.6821 81.1057L61.4553 80.5568L58.5047 79.2237L47.6806 72.7621L46.7022 72.1819C46.2984 71.9466 45.7704 72.0721 45.5375 72.4798C45.3667 72.7621 45.3822 73.0915 45.5375 73.3581C45.6151 73.4836 45.7083 73.5777 45.8326 73.6561L46.873 74.2834L57.6816 80.7293C57.7127 80.745 57.7437 80.7607 57.7748 80.7764L64.5457 83.8347C64.6855 83.8974 64.8097 83.9601 64.9184 84.0385C65.1669 84.1954 65.3843 84.3836 65.5862 84.5875C65.7881 84.807 65.9434 85.0423 66.0831 85.3089C66.5335 86.1715 66.5956 87.238 66.1608 88.1947C65.8036 88.9945 65.1513 89.6062 64.3283 89.9042C63.5207 90.2178 62.6356 90.1708 61.828 89.8101L60.9118 89.4023L59.9645 88.9788L59.0016 88.5397L56.4082 87.3791L55.0727 86.7831L51.7493 84.9325L51.6872 84.9011L50.8641 84.4463L50.802 84.4149L49.979 83.9601L49.9013 83.9131L46.578 82.0624L45.5686 81.4978L43.6584 80.4313L43.2391 80.1804L43.1925 80.149L42.3539 79.6785L42.3073 79.6472L41.4688 79.1767L41.4222 79.1453L38.5492 77.5456L38.1144 77.3103C37.9901 77.2476 37.8504 77.2006 37.7106 77.2006C37.3689 77.1535 37.0118 77.3103 36.8254 77.6397C36.6856 77.9063 36.6856 78.22 36.8409 78.4709C36.9186 78.6121 37.0273 78.7219 37.1671 78.8003L39.5897 80.1334L39.6207 80.149L40.4749 80.6196L40.5059 80.6352L41.36 81.1057L41.3911 81.1214L42.8043 81.9056L45.6462 83.4739L45.7239 83.5053L48.0999 84.8227L48.1775 84.8698L48.9851 85.3246L49.0627 85.3716L49.8703 85.8265L49.9479 85.8735L54.2496 88.2574C54.2651 88.2731 54.2962 88.2731 54.3117 88.2888L55.5075 88.822C55.8802 89.1043 56.1908 89.4807 56.3927 89.9042C56.4393 89.9983 56.4858 90.0924 56.5169 90.1865C56.579 90.359 56.6256 90.5472 56.6567 90.7354C56.7188 91.0647 56.7188 91.3784 56.6722 91.7078C56.6256 91.9901 56.548 92.2724 56.4237 92.5547C56.0821 93.3075 55.4764 93.8721 54.7155 94.1544C53.9545 94.4367 53.1315 94.4053 52.386 94.076L52.1997 93.9819L51.2058 93.48L50.1964 92.9781L46.6556 91.1902L46.1121 90.9236L43.3478 89.5434L43.2547 89.4964L42.4161 89.0729L42.3229 89.0259L41.4843 88.6024L41.3911 88.5554L40.2885 88.0221L39.8071 87.7398L34.8066 84.807L33.9369 84.3052L33.0828 83.8033H33.0672L30.3806 82.2349L29.9458 81.984C29.8992 81.9526 29.8526 81.937 29.7905 81.9213H29.775C29.7284 81.9056 29.6818 81.8899 29.6197 81.8899H29.6042C29.5576 81.8899 29.4955 81.8899 29.4489 81.8899H29.4333C29.3867 81.8899 29.3402 81.9056 29.278 81.9213H29.2625C29.2159 81.937 29.1693 81.9527 29.1227 81.9683H29.1072C29.0606 81.984 29.014 82.0154 28.983 82.0468C28.983 82.0468 28.9674 82.0467 28.9674 82.0624C28.9209 82.0938 28.8898 82.1252 28.8587 82.1722C28.8587 82.1722 28.8587 82.1722 28.8432 82.1879C28.8121 82.2193 28.7811 82.2663 28.75 82.3134C28.75 82.3134 28.75 82.3134 28.75 82.3291V82.3447C28.7345 82.3918 28.7034 82.4231 28.6879 82.4702C28.6879 82.4859 28.6879 82.4859 28.6724 82.5016C28.6569 82.5486 28.6413 82.5957 28.6413 82.6427C28.6413 82.6741 28.6413 82.7211 28.6413 82.7525C28.6413 82.7682 28.6413 82.7839 28.6413 82.7996C28.6413 82.8152 28.6413 82.8309 28.6413 82.8309C28.6413 82.878 28.6569 82.925 28.6569 82.9721C28.6724 83.0191 28.6879 83.0662 28.7034 83.1132C28.7034 83.1289 28.719 83.1446 28.719 83.1446C28.7345 83.176 28.7656 83.223 28.7811 83.2544C28.7811 83.2544 28.7811 83.2701 28.7966 83.2701C28.8277 83.3014 28.8587 83.3485 28.8898 83.3798C28.9053 83.3955 28.9053 83.3955 28.9209 83.4112C28.9519 83.4426 28.983 83.4583 29.0296 83.4896L29.0451 83.5053L31.2348 84.7914L31.2813 84.8227L32.1044 85.3089L32.1355 85.3246L32.9741 85.8108L33.0051 85.8265L38.953 89.3082L39.4033 89.5748C39.4188 89.5905 39.4344 89.5905 39.4499 89.6062L39.5276 89.6532L39.5431 89.6689L40.4593 90.1237L40.5059 90.1551L41.3911 90.5942L41.4688 90.6413L45.6928 92.7585C46.2208 93.229 46.5003 93.8721 46.5314 94.5465C46.5469 94.8758 46.5003 95.2209 46.3761 95.5345C46.2829 95.7855 46.1587 96.005 45.9879 96.2246C45.3667 96.9931 44.6368 97.0401 43.0217 96.7735C42.8354 96.7421 42.6179 96.7108 42.4005 96.6637C42.1055 96.6167 41.6862 96.4912 41.2203 96.3501C40.1021 95.9893 38.6268 95.4247 37.4 94.9229C37.0739 94.7974 36.7633 94.6562 36.4682 94.5465C36.1421 94.4053 35.847 94.2798 35.5986 94.1857C35.552 94.1701 35.5054 94.1544 35.4743 94.1387C35.4588 94.1387 35.4433 94.123 35.4277 94.123C35.2414 94.0603 35.0706 93.9818 34.8842 93.9191C34.527 93.778 34.1699 93.6368 33.7971 93.4957C33.4555 93.3545 33.0983 93.1977 32.7567 93.0565C31.5609 92.539 30.3962 91.9587 29.247 91.347C28.8743 91.1432 28.4705 90.9236 28.0823 90.7197C27.43 90.359 26.7622 90.0139 26.11 89.6532C26.0479 89.6219 25.9702 89.5748 25.9081 89.5434C25.7218 89.4337 25.5354 89.3239 25.3491 89.2298C25.2248 89.167 25.1006 89.0886 24.9919 89.0259C24.8521 88.9475 24.7279 88.8691 24.6036 88.7906C24.4328 88.6809 24.262 88.5867 24.0912 88.4926C23.2681 87.9908 22.5227 87.4889 21.917 87.0027L21.0629 86.3126C20.1466 85.5755 19.2615 84.7757 18.4073 83.9288C18.3918 83.9131 18.3763 83.8974 18.3607 83.8817C18.1589 83.6778 17.957 83.4739 17.7706 83.2701C17.7551 83.2544 17.7396 83.2387 17.724 83.223C17.5222 83.0191 17.3358 82.8152 17.1494 82.5957C17.1339 82.58 17.1339 82.58 17.1184 82.5643C15.6275 80.9332 14.2454 79.161 12.9254 77.2947C12.7546 77.0594 12.5993 76.8085 12.4284 76.5732C12.2576 76.338 12.1023 76.087 11.947 75.8518C9.29147 71.8368 6.93098 67.4611 4.6326 63.1639C4.01142 62.019 3.39024 60.8427 2.76905 59.6978L17.2116 36.847L20.3019 36.5491C24.1377 36.1883 32.6324 35.8904 38.5337 36.7373C36.9031 37.741 34.1233 39.5446 31.7006 41.1129C31.4677 41.2541 26.0945 44.7672 23.0817 47.8725C21.4045 49.5977 19.7118 52.2639 21.125 55.228C21.5598 56.1534 22.4916 56.9219 23.6563 57.3139C24.2465 57.5178 24.8832 57.6119 25.5043 57.6119C26.4051 57.6119 27.3058 57.408 28.1133 56.9846C31.1882 55.4006 33.0828 54.1145 34.9463 52.703L40.9252 51.0719L44.0311 56.075L48.5968 63.4148C48.7055 63.5873 49.218 64.1676 51.3921 65.736C51.5319 65.8301 51.6717 65.9398 51.827 66.0496C53.0693 66.9279 54.7931 68.0885 57.1692 69.5941L65.4775 75.1617C65.5241 75.1931 65.5551 75.2088 65.6017 75.2244L70.5867 77.4829L71.3787 77.8436L72.1707 78.2043L72.3726 78.2984C74.0187 78.9257 74.7331 80.8862 73.9877 82.5329ZM79.2833 62.6934C76.8762 67.1945 74.407 71.7741 71.5961 75.9302L66.3627 73.5777L58.1165 68.0414C58.1165 68.0414 58.1009 68.0414 58.1009 68.0257C55.2745 66.2221 53.4265 64.9675 52.2152 64.0892C50.5691 62.8973 50.1187 62.4268 50.0255 62.3327L43.8292 52.3737L41.8104 49.2997C41.7327 49.2056 41.624 49.0174 41.2358 49.1115L34.3407 50.9622C34.232 50.9935 34.1388 51.0406 34.0456 51.1033C32.2287 52.5148 30.3806 53.7695 27.3368 55.3378C26.374 55.824 25.2403 55.9181 24.2154 55.5574C23.501 55.3065 22.9264 54.8673 22.678 54.3655C21.886 52.6873 22.414 50.9151 24.3086 48.9547C27.1815 45.9905 32.5858 42.4774 32.6324 42.4304C35.4277 40.6268 40.009 37.6783 40.537 37.4116C40.7854 37.3175 41.0184 37.2234 41.2669 37.145C41.7483 36.9725 42.2297 36.8314 42.7111 36.6902C43.0372 36.5961 43.3478 36.5177 43.6739 36.455C47.137 35.6551 50.5691 35.6865 54.1409 35.7022C54.6378 35.7022 55.1503 35.7022 55.6473 35.7022L65.7725 36.3138L66.6888 36.3765L66.7198 36.4236L81.1313 59.2116C80.5256 60.3722 79.8889 61.5485 79.2833 62.6934Z" fill="white" stroke="white"/>
<path fill-rule="evenodd" clip-rule="evenodd" d="M41.5001 2.23081C41.3648 2.23081 41.0317 2.26799 40.8547 2.62195L38.1391 8.05174C37.7092 8.90985 36.8809 9.50622 35.9231 9.64305L29.8434 10.519C29.4419 10.577 29.305 10.8745 29.2634 10.9994C29.2262 11.1198 29.1667 11.4262 29.4434 11.6909L33.8395 15.9146C34.54 16.5883 34.8583 17.5594 34.6917 18.5098L33.6566 24.4735C33.5927 24.8468 33.8262 25.0639 33.9303 25.1383C34.0403 25.2215 34.3348 25.3866 34.6991 25.1963L40.1349 22.378C40.9915 21.9363 42.0117 21.9363 42.8654 22.378L48.2996 25.1948C48.6655 25.3836 48.96 25.2186 49.0715 25.1383C49.1756 25.0639 49.4091 24.8468 49.3452 24.4735L48.3071 18.5098C48.1405 17.5594 48.4588 16.5883 49.1593 15.9146L53.5554 11.6909C53.8335 11.4262 53.7741 11.1184 53.7354 10.9994C53.6952 10.8745 53.5584 10.577 53.1569 10.519L47.0772 9.64305C46.1209 9.50622 45.2925 8.90985 44.8627 8.05025L42.1441 2.62195C41.9686 2.26799 41.6355 2.23081 41.5001 2.23081ZM34.3571 27.5133C33.7429 27.5133 33.1331 27.32 32.6111 26.9393C31.7099 26.2789 31.2682 25.1888 31.46 24.0913L32.4951 18.1276C32.5338 17.906 32.4579 17.6814 32.2943 17.5238L27.8981 13.3001C27.0891 12.5253 26.7991 11.3801 27.1412 10.3168C27.4862 9.2415 28.3993 8.47262 29.5252 8.312L35.6049 7.43603C35.8398 7.40331 36.0421 7.25906 36.1432 7.05382L38.8603 1.62254C39.3615 0.621652 40.3728 0 41.5001 0C42.6274 0 43.6387 0.621652 44.1399 1.62254L46.8585 7.05233C46.9612 7.25906 47.1619 7.40331 47.3954 7.43603L53.4751 8.312C54.6009 8.47262 55.5141 9.2415 55.8591 10.3168C56.2012 11.3801 55.9097 12.5253 55.1006 13.3001L50.7045 17.5238C50.5409 17.6814 50.4665 17.906 50.5052 18.1261L51.5418 24.0913C51.7321 25.1903 51.2904 26.2804 50.3877 26.9393C49.4731 27.61 48.2818 27.7007 47.272 27.1742L41.8392 24.359C41.6266 24.2489 41.3722 24.2489 41.1596 24.359L35.7268 27.1757C35.2925 27.4018 34.8241 27.5133 34.3571 27.5133Z" fill="white"/>
</svg>
